<?xml version="1.0" encoding="UTF-8"?>
<svg version="1.1" xmlns="http://www.w3.org/2000/svg" width="200" height="200">
<path d="M0 0 C2.24060946 0.00306362 4.48122084 0.00493515 6.72183228 0.00567627 C11.38299007 0.01024756 16.04397202 0.02456166 20.70507812 0.046875 C26.69185024 0.07538588 32.67848585 0.08611295 38.66531944 0.0905571 C43.2753537 0.0946994 47.88536023 0.10450312 52.4953804 0.11643219 C54.7050924 0.12213967 56.91480706 0.12689679 59.12452316 0.13069916 C62.19292736 0.13753099 65.26122069 0.15114246 68.32958984 0.16699219 C69.24685349 0.16811005 70.16411713 0.16922791 71.10917664 0.17037964 C77.3618582 0.2134207 77.3618582 0.2134207 78.4765625 1.328125 C78.58786562 4.22113532 78.63396568 7.09048507 78.63769531 9.984375 C78.64266022 10.89355682 78.64762512 11.80273865 78.65274048 12.73947144 C78.66742435 15.76903022 78.6741801 18.79853636 78.6796875 21.828125 C78.68544098 23.93831381 78.69119869 26.04850262 78.69696045 28.15869141 C78.7074929 32.60091394 78.71331851 37.04311829 78.71679688 41.48535156 C78.7222373 47.13473088 78.74615905 52.78386373 78.77476883 58.4331665 C78.79355899 62.80367689 78.79860979 67.1741304 78.80013275 71.54467773 C78.80313125 73.62395552 78.81106306 75.703233 78.82431793 77.7824707 C79.00277972 107.9729065 72.54366429 132.46818794 51.2890625 154.890625 C32.19981668 173.42419072 8.01678196 180.97700511 -18.16796875 180.609375 C-41.93697216 179.7514431 -63.32342366 168.36066946 -79.65625 151.4375 C-96.29291437 132.64294193 -102.71204669 108.291237 -101.67578125 83.63330078 C-100.29809106 62.78690527 -92.30224678 43.21932067 -77.5234375 28.328125 C-76.6984375 27.461875 -75.8734375 26.595625 -75.0234375 25.703125 C-74.1984375 24.919375 -73.3734375 24.135625 -72.5234375 23.328125 C-71.90339844 22.72484375 -71.28335938 22.1215625 -70.64453125 21.5 C-50.50488974 2.62133783 -26.25532909 -0.1579411 0 0 Z " fill="#34CFBC" transform="translate(111.5234375,9.671875)"/>
<path d="M0 0 C2.15253212 4.25335176 4.19322865 8.54539427 6.1875 12.875 C9.63727145 20.3138877 13.28065986 27.64653759 16.97509766 34.96630859 C19.03634018 39.05638726 21.08190785 43.15437248 23.12280273 47.25463867 C24.67037987 50.36021563 26.23522648 53.45243562 27.8359375 56.53125 C28.38507813 57.5934375 28.93421875 58.655625 29.5 59.75 C29.9846875 60.67296875 30.469375 61.5959375 30.96875 62.546875 C32 65 32 65 32 69 C33.98 69.495 33.98 69.495 36 70 C36.33 71.98 36.66 73.96 37 76 C37.66 76 38.32 76 39 76 C39.97302729 80.8305673 40.10485848 85.48693717 40.02172852 90.39208984 C40.01212097 91.21226593 40.00251343 92.03244202 39.99261475 92.87747192 C39.95979359 95.57205248 39.91939768 98.26646222 39.87890625 100.9609375 C39.85458861 102.83565683 39.83074588 104.71038237 39.80735779 106.58511353 C39.74468045 111.50721341 39.67556788 116.42920255 39.60510254 121.35119629 C39.53427101 126.37861103 39.46954287 131.40610397 39.40429688 136.43359375 C39.27549542 146.28914846 39.13989356 156.14459693 39 166 C36.7929712 166.0051058 34.58593892 166.00871871 32.37890625 166.01171875 C31.14986572 166.01389404 29.9208252 166.01606934 28.65454102 166.01831055 C6.72761837 165.90844889 -10.530028 156.0612065 -26.1875 141.125 C-43.08784886 123.61379516 -50.40648089 99.88394272 -50.30249023 75.94580078 C-49.79284937 53.45048996 -41.98783579 32.10941629 -26 16 C-25.175 15.13375 -24.35 14.2675 -23.5 13.375 C-8.87172012 -0.52186589 -8.87172012 -0.52186589 0 0 Z " fill="#02C7CE" transform="translate(60,22)"/>
<path d="M0 0 C33 0 33 0 42 1 C42.0696355 14.38717523 42.12288014 27.77430707 42.15543652 41.16162682 C42.17106514 47.37848706 42.19225236 53.595223 42.22631836 59.81201172 C42.25901152 65.81611979 42.27687409 71.82010861 42.28463173 77.82429886 C42.29015736 80.11032614 42.30094745 82.3963472 42.31719017 84.68232346 C42.33909651 87.89431406 42.34196138 91.10581732 42.34057617 94.31787109 C42.351362 95.25439514 42.36214783 96.19091919 42.3732605 97.15582275 C42.33668342 105.03905344 40.67311062 112.00458472 37 119 C35.68 118.67 34.36 118.34 33 118 C33.0928125 119.7015625 33.0928125 119.7015625 33.1875 121.4375 C33.21380222 126.33847991 31.76012394 130.473967 30 135 C29.01 135 28.02 135 27 135 C26.95875 135.680625 26.9175 136.36125 26.875 137.0625 C25.62563668 141.25679113 23.25731704 144.10893632 20 147 C17.125 147.9375 17.125 147.9375 15 148 C14.90203125 148.62648437 14.8040625 149.25296875 14.703125 149.8984375 C14.55359375 150.71570313 14.4040625 151.53296875 14.25 152.375 C14.11078125 153.18710938 13.9715625 153.99921875 13.828125 154.8359375 C13 157 13 157 11.09375 158.28125 C8.62876429 159.12743912 6.58855249 159.14380847 4 159 C4 159.66 4 160.32 4 161 C3.01 161.99 3.01 161.99 2 163 C0.68 163 -0.64 163 -2 163 C-2 136.93 -2 110.86 -2 84 C-1.67 84 -1.34 84 -1 84 C-0.67 56.28 -0.34 28.56 0 0 Z " fill="#00C8CE" transform="translate(145,12)"/>
<path d="M0 0 C0.66 0.33 1.32 0.66 2 1 C1.99861731 2.18774678 1.99861731 2.18774678 1.99720669 3.39948845 C1.97514642 22.64422169 1.95858598 41.88895242 1.94818783 61.1336956 C1.94302603 70.44020923 1.93598554 79.74671443 1.92456055 89.05322266 C1.91461016 97.1623978 1.90814572 105.27156684 1.90591151 113.38074791 C1.904605 117.67662888 1.90152295 121.97249238 1.89426994 126.26836777 C1.88750415 130.30823916 1.88538419 134.34808582 1.88689232 138.38796234 C1.88661624 139.87390146 1.88461442 141.35984137 1.88079453 142.8457756 C1.87584865 144.86819619 1.87760448 146.89062992 1.87974548 148.91305542 C1.87882369 150.04686079 1.8779019 151.18066616 1.87695217 152.34882927 C1.81945905 154.9766386 1.81945905 154.9766386 3 157 C-14.08598794 151.04484727 -26.89496549 133.96680151 -34.57543945 118.38623047 C-44.8311191 96.67901027 -45.90519359 71.35951744 -38.93359375 48.50390625 C-34.38953288 36.01148807 -28.37581967 25.44711868 -19 16 C-18.175 15.13375 -17.35 14.2675 -16.5 13.375 C-5.22727273 2.66590909 -5.22727273 2.66590909 0 0 Z " fill="#6F9AD5" transform="translate(53,22)"/>
<path d="M0 0 C3.48331435 3.01887244 4.79157144 5.56909529 6 10 C6.66 10 7.32 10 8 10 C9.99481618 13.92084559 11.95411861 17.8049043 13.625 21.875 C14.78749431 25.02912515 14.78749431 25.02912515 17 27 C17.39764263 28.98821313 17.73775349 30.98944339 18 33 C18.66 33 19.32 33 20 33 C20.24234375 33.58007812 20.4846875 34.16015625 20.734375 34.7578125 C22.31242572 38.43588455 23.80180994 41.72020227 26.125 45 C28.22436464 48.35898343 28.81559158 51.08120815 29.41015625 54.94921875 C30.1188558 57.41324036 31.18952878 58.22546865 33 60 C34.1328125 62.375 34.1328125 62.375 35.125 65 C35.62386719 66.299375 35.62386719 66.299375 36.1328125 67.625 C36.78334659 69.4066429 37.40021287 71.20063861 38 73 C38.99 73 39.98 73 41 73 C41 73.66 41 74.32 41 75 C26.52695126 81.70490564 12.60031249 85.21260192 -3.4375 85.0625 C-4.35982422 85.05798828 -5.28214844 85.05347656 -6.23242188 85.04882812 C-8.48835048 85.03713938 -10.74413967 85.02075455 -13 85 C-13 84.67 -13 84.34 -13 84 C-9.04 84 -5.08 84 -1 84 C-1.00222061 82.96239029 -1.00444122 81.92478058 -1.00672913 80.85572815 C-1.02696028 71.09923729 -1.04197201 61.34275067 -1.05181217 51.58624363 C-1.05704107 46.5697753 -1.06413883 41.55332385 -1.07543945 36.53686523 C-1.0862681 31.69990306 -1.09227679 26.86295716 -1.09487724 22.02598381 C-1.09673153 20.17631715 -1.10035222 18.32665143 -1.10573006 16.47699165 C-1.1129402 13.89552986 -1.11399095 11.31413618 -1.11352539 8.73266602 C-1.11712067 7.96014999 -1.12071594 7.18763397 -1.12442017 6.39170837 C-1.11405216 1.11405216 -1.11405216 1.11405216 0 0 Z " fill="#6C9AD5" transform="translate(101,105)"/>
<path d="M0 0 C33.33 0 66.66 0 101 0 C101 0.33 101 0.66 101 1 C85.49 1 69.98 1 54 1 C54 27.73 54 54.46 54 82 C51 81 51 81 49.8125 79.125 C49 77 49 77 49 74 C48.01 73.67 47.02 73.34 46 73 C44.53515625 70.41015625 44.53515625 70.41015625 43.0625 67.0625 C42.54042969 65.886875 42.01835937 64.71125 41.48046875 63.5 C40.22712215 60.53694314 39.03251626 57.56380698 37.875 54.5625 C36.7498732 51.64567969 35.56513831 49.17000161 33.75 46.625 C32 44 32 44 32 40 C31.34 40 30.68 40 30 40 C29.61908203 39.00419922 29.61908203 39.00419922 29.23046875 37.98828125 C26.41158369 30.18319124 26.41158369 30.18319124 21.54296875 23.60546875 C17.06028281 18.94120566 15.76550649 13.25163631 15 7 C14.34 6.67 13.68 6.34 13 6 C13 4.35 13 2.7 13 1 C8.71 1 4.42 1 0 1 C0 0.67 0 0.34 0 0 Z " fill="#6C9CD6" transform="translate(88,10)"/>
<path d="M0 0 C0.33 0 0.66 0 1 0 C1 1.65 1 3.3 1 5 C1.99 5.33 2.98 5.66 4 6 C4.103125 7.051875 4.20625 8.10375 4.3125 9.1875 C4.98499319 12.91678039 5.9988781 14.86780921 8 18 C8 18.99 8 19.98 8 21 C8.99 21.33 9.98 21.66 11 22 C12.07074592 23.96303418 13.06295743 25.9697411 14 28 C14.53625 28.825 15.0725 29.65 15.625 30.5 C17.19100746 33.3472863 17.62691073 35.79143228 18 39 C18.66 39 19.32 39 20 39 C20.27070312 39.71800781 20.54140625 40.43601563 20.8203125 41.17578125 C21.99526002 43.98865231 23.36594883 46.54079626 24.875 49.1875 C27.71468251 54.32103797 29.92606571 59.52220944 32 65 C33.53296105 69.78783423 33.53296105 69.78783423 37 73 C38 75.33333333 39 77.66666667 40 80 C40.99 80.495 40.99 80.495 42 81 C42 54.27 42 27.54 42 0 C57.84 0 73.68 0 90 0 C90.12032643 23.27647902 90.12032643 23.27647902 90.14648438 33.29492188 C90.16433029 40.0973219 90.18530723 46.89959933 90.22631836 53.7019043 C90.25921717 59.19382116 90.27691656 64.68560632 90.28463173 70.17761421 C90.29012099 72.25969067 90.30083787 74.34176096 90.31719017 76.42378044 C90.5332375 105.10521218 85.09097088 129.9828702 64.7109375 151.40625 C62.82877153 153.29506674 60.93108362 155.16136187 59 157 C58.34 156.01 57.68 155.02 57 154 C57.66 154 58.32 154 59 154 C59.33 152.35 59.66 150.7 60 149 C61.65 148.67 63.3 148.34 65 148 C65.33 147.01 65.66 146.02 66 145 C67.2375 143.7934375 67.2375 143.7934375 68.5 142.5625 C70.84093148 140.16304524 71.64126013 139.22865886 72 136 C72.99 136 73.98 136 75 136 C76.34844868 130.3443706 77.36934845 124.7809725 78 119 C79.98 119.495 79.98 119.495 82 120 C81.95875 119.236875 81.9175 118.47375 81.875 117.6875 C82 115 82 115 84 112 C86.3397457 106.60464759 86.30572694 101.54765675 86.31884766 95.77197266 C86.32889328 94.75672516 86.3389389 93.74147766 86.34928894 92.69546509 C86.38009154 89.35166979 86.39714815 86.00795447 86.4140625 82.6640625 C86.43277647 80.34092523 86.45235006 78.01779473 86.4727478 75.69467163 C86.52405062 69.58900959 86.5636864 63.48332553 86.60089111 57.37756348 C86.64094224 51.14358071 86.69202956 44.90968945 86.7421875 38.67578125 C86.83892501 26.45057876 86.92231665 14.22533843 87 2 C73.14 1.67 59.28 1.34 45 1 C45 30.7 45 60.4 45 91 C44.67 91 44.34 91 44 91 C44 89.02 44 87.04 44 85 C42.68 85 41.36 85 40 85 C38.42578125 82.8203125 38.42578125 82.8203125 37 80 C36.53980469 79.17242187 36.07960937 78.34484375 35.60546875 77.4921875 C34.60827507 75.65163718 33.61228981 73.81043188 32.6171875 71.96875 C31.55652307 70.02163656 30.4788895 68.0836511 29.3828125 66.15625 C26.22284263 60.55948745 23.78715621 55.17147468 22 49 C21.28523972 46.0725106 21.28523972 46.0725106 19.66796875 44.734375 C17.27629949 42.24748706 15.87765276 39.29067976 14.3125 36.25 C13.60825373 34.90485324 12.90382097 33.5598041 12.19921875 32.21484375 C11.83876465 31.52245605 11.47831055 30.83006836 11.10693359 30.11669922 C9.30393826 26.66897766 7.46254024 23.24189501 5.625 19.8125 C4.41095997 17.54457114 3.20323363 15.27371613 2 13 C1.5978125 12.29746094 1.195625 11.59492188 0.78125 10.87109375 C-0.18672553 8.55279235 -0.19857263 6.75146938 -0.125 4.25 C-0.10695313 3.45078125 -0.08890625 2.6515625 -0.0703125 1.828125 C-0.04710938 1.22484375 -0.02390625 0.6215625 0 0 Z " fill="#1CBBC8" transform="translate(100,11)"/>
<path d="M0 0 C0.66 0.33 1.32 0.66 2 1 C1.99907821 1.79183119 1.99815641 2.58366238 1.99720669 3.39948845 C1.97514642 22.64422169 1.95858598 41.88895242 1.94818783 61.1336956 C1.94302603 70.44020923 1.93598554 79.74671443 1.92456055 89.05322266 C1.91461016 97.1623978 1.90814572 105.27156684 1.90591151 113.38074791 C1.904605 117.67662888 1.90152295 121.97249238 1.89426994 126.26836777 C1.88750415 130.30823916 1.88538419 134.34808582 1.88689232 138.38796234 C1.88661624 139.87390146 1.88461442 141.35984137 1.88079453 142.8457756 C1.87584865 144.86819619 1.87760448 146.89062992 1.87974548 148.91305542 C1.87882369 150.04686079 1.8779019 151.18066616 1.87695217 152.34882927 C1.81945905 154.9766386 1.81945905 154.9766386 3 157 C0 156 0 156 -1.17442036 153.83057022 C-2.10315935 150.64630938 -2.23314616 148.02752128 -2.20927429 144.71087646 C-2.20505463 143.4433252 -2.20083496 142.17577393 -2.19648743 140.86981201 C-2.18156247 139.47277621 -2.16643422 138.07574256 -2.15112305 136.67871094 C-2.14232993 135.20178709 -2.13441771 133.72485777 -2.12731934 132.2479248 C-2.10544898 128.24404385 -2.07089647 124.24036309 -2.03379035 120.23659801 C-1.99685306 116.0490745 -1.97066095 111.86148275 -1.94306946 107.67388916 C-1.89515947 100.64613366 -1.83939578 93.61847522 -1.77856445 86.59082031 C-1.70820706 78.45592417 -1.6484333 70.3210053 -1.59470528 62.18598342 C-1.53745876 53.53313363 -1.4726546 44.88035264 -1.40554833 36.22757435 C-1.38667931 33.72915325 -1.36921794 31.23072554 -1.3520565 28.73229218 C-1.32476863 24.81543145 -1.29242815 20.89864425 -1.25609589 16.9818573 C-1.24350093 15.54066094 -1.2326084 14.09944861 -1.22349739 12.65822601 C-1.2108174 10.69917855 -1.19144806 8.7401777 -1.17167664 6.78118896 C-1.16262645 5.68245327 -1.15357626 4.58371758 -1.14425182 3.45168686 C-1 1 -1 1 0 0 Z " fill="#4AAAD3" transform="translate(53,22)"/>
<path d="M0 0 C0.33 0 0.66 0 1 0 C1.06989942 12.2232062 1.12301236 24.44636387 1.15543652 36.66973019 C1.17100836 42.34719403 1.19208938 48.02451985 1.22631836 53.7019043 C1.25921717 59.19382116 1.27691656 64.68560632 1.28463173 70.17761421 C1.29012099 72.25969067 1.30083787 74.34176096 1.31719017 76.42378044 C1.5332375 105.10521218 -3.90902912 129.9828702 -24.2890625 151.40625 C-26.17122847 153.29506674 -28.06891638 155.16136187 -30 157 C-30.66 156.01 -31.32 155.02 -32 154 C-31.34 154 -30.68 154 -30 154 C-29.67 152.35 -29.34 150.7 -29 149 C-27.35 148.67 -25.7 148.34 -24 148 C-23.67 147.01 -23.34 146.02 -23 145 C-21.7625 143.7934375 -21.7625 143.7934375 -20.5 142.5625 C-18.15906852 140.16304524 -17.35873987 139.22865886 -17 136 C-16.01 136 -15.02 136 -14 136 C-12.65155132 130.3443706 -11.63065155 124.7809725 -11 119 C-9.68 119.33 -8.36 119.66 -7 120 C-7.04125 119.236875 -7.0825 118.47375 -7.125 117.6875 C-7 115 -7 115 -5 112 C-2.61262438 106.4867081 -2.56727099 101.0373329 -2.375 95.125 C-2.33632812 94.15046875 -2.29765625 93.1759375 -2.2578125 92.171875 C-2.16406967 89.7814328 -2.0783617 87.39098756 -2 85 C-1.67 85 -1.34 85 -1 85 C-0.67 56.95 -0.34 28.9 0 0 Z " fill="#6FE8EA" transform="translate(189,11)"/>
<path d="M0 0 C0.33 0 0.66 0 1 0 C1 1.65 1 3.3 1 5 C1.99 5.33 2.98 5.66 4 6 C4.103125 7.051875 4.20625 8.10375 4.3125 9.1875 C4.98499319 12.91678039 5.9988781 14.86780921 8 18 C8 18.99 8 19.98 8 21 C8.99 21.33 9.98 21.66 11 22 C12.07074592 23.96303418 13.06295743 25.9697411 14 28 C14.53625 28.825 15.0725 29.65 15.625 30.5 C17.19100746 33.3472863 17.62691073 35.79143228 18 39 C18.66 39 19.32 39 20 39 C20.27070312 39.71800781 20.54140625 40.43601563 20.8203125 41.17578125 C21.99526002 43.98865231 23.36594883 46.54079626 24.875 49.1875 C27.71468251 54.32103797 29.92606571 59.52220944 32 65 C33.53296105 69.78783423 33.53296105 69.78783423 37 73 C38 75.33333333 39 77.66666667 40 80 C40.99 80.495 40.99 80.495 42 81 C42 54.27 42 27.54 42 0 C42.33 0 42.66 0 43 0 C43 28.05 43 56.1 43 85 C42.01 85 41.02 85 40 85 C38.48828125 82.8203125 38.48828125 82.8203125 37 80 C36.53980469 79.17242187 36.07960937 78.34484375 35.60546875 77.4921875 C34.60827507 75.65163718 33.61228981 73.81043188 32.6171875 71.96875 C31.55652307 70.02163656 30.4788895 68.0836511 29.3828125 66.15625 C26.22284263 60.55948745 23.78715621 55.17147468 22 49 C21.28523972 46.0725106 21.28523972 46.0725106 19.66796875 44.734375 C17.27629949 42.24748706 15.87765276 39.29067976 14.3125 36.25 C13.60825373 34.90485324 12.90382097 33.5598041 12.19921875 32.21484375 C11.83876465 31.52245605 11.47831055 30.83006836 11.10693359 30.11669922 C9.30393826 26.66897766 7.46254024 23.24189501 5.625 19.8125 C4.41095997 17.54457114 3.20323363 15.27371613 2 13 C1.5978125 12.29746094 1.195625 11.59492188 0.78125 10.87109375 C-0.18672553 8.55279235 -0.19857263 6.75146938 -0.125 4.25 C-0.10695313 3.45078125 -0.08890625 2.6515625 -0.0703125 1.828125 C-0.04710938 1.22484375 -0.02390625 0.6215625 0 0 Z " fill="#49B0CE" transform="translate(100,11)"/>
<path d="M0 0 C3.48331435 3.01887244 4.79157144 5.56909529 6 10 C6.66 10 7.32 10 8 10 C12.40774487 18.261959 12.40774487 18.261959 13 23 C12.01 22.67 11.02 22.34 10 22 C9.26953125 20.15234375 9.26953125 20.15234375 8.8125 17.9375 C8.65394531 17.20402344 8.49539062 16.47054687 8.33203125 15.71484375 C8.22246094 15.14894531 8.11289063 14.58304688 8 14 C7.34 14 6.68 14 6 14 C5.73445313 13.36191406 5.46890625 12.72382812 5.1953125 12.06640625 C4.84210938 11.24011719 4.48890625 10.41382812 4.125 9.5625 C3.77695313 8.73878906 3.42890625 7.91507812 3.0703125 7.06640625 C2.1755063 4.84253285 2.1755063 4.84253285 0 4 C0.33 30.4 0.66 56.8 1 84 C0.34 84 -0.32 84 -1 84 C-1.02312312 73.19541915 -1.04091493 62.39084414 -1.05181217 51.58624363 C-1.05704107 46.5697753 -1.06413883 41.55332385 -1.07543945 36.53686523 C-1.0862681 31.69990306 -1.09227679 26.86295716 -1.09487724 22.02598381 C-1.09673153 20.17631715 -1.10035222 18.32665143 -1.10573006 16.47699165 C-1.1129402 13.89552986 -1.11399095 11.31413618 -1.11352539 8.73266602 C-1.11712067 7.96014999 -1.12071594 7.18763397 -1.12442017 6.39170837 C-1.11405216 1.11405216 -1.11405216 1.11405216 0 0 Z " fill="#4EA8D4" transform="translate(101,105)"/>
<path d="M0 0 C0.99 0.495 0.99 0.495 2 1 C2 25.09 2 49.18 2 74 C3.485 73.01 3.485 73.01 5 72 C5.99 72 6.98 72 8 72 C8 71.34 8 70.68 8 70 C10.475 69.505 10.475 69.505 13 69 C11.63792042 73.08623873 9.73386836 73.9894555 6 76 C4.35 75.67 2.7 75.34 1 75 C0.67 50.25 0.34 25.5 0 0 Z " fill="#22CFC6" transform="translate(141,101)"/>
<path d="M0 0 C3.67230705 3.07999946 4.56802365 5.2482602 5 10 C5.66 10 6.32 10 7 10 C7.36351563 10.87011719 7.36351563 10.87011719 7.734375 11.7578125 C9.32497798 15.46514098 10.7987654 18.72402112 13.1875 22 C15.5700967 25.94360834 15.79845401 29.46521523 16 34 C13.71724454 31.71724454 12.48310825 29.4579822 10.9375 26.625 C10.41027344 25.66851562 9.88304688 24.71203125 9.33984375 23.7265625 C8.21179851 21.43100688 7.47882854 19.4946376 7 17 C6.34 17 5.68 17 5 17 C1.57142857 8.57142857 1.57142857 8.57142857 2 4 C1.34 4 0.68 4 0 4 C0 2.68 0 1.36 0 0 Z " fill="#52B1C8" transform="translate(114,128)"/>
<path d="M0 0 C0.33 0 0.66 0 1 0 C1.15409117 9.02314524 1.3022699 18.04636279 1.4429636 27.06972694 C1.50848218 31.2599175 1.57601403 35.45005519 1.64819336 39.64013672 C1.71781391 43.68602386 1.78208527 47.73196426 1.84269524 51.77799606 C1.86671576 53.31933028 1.89264274 54.86063603 1.92053413 56.40190506 C1.9593587 58.5655803 1.9913188 60.72925874 2.02172852 62.89306641 C2.05170677 64.73839462 2.05170677 64.73839462 2.08229065 66.6210022 C2.003683 69.84876969 1.61744428 72.83525561 1 76 C2.65 76 4.3 76 6 76 C5.34 76.99 4.68 77.98 4 79 C2.68 79 1.36 79 0 79 C0 52.93 0 26.86 0 0 Z " fill="#10C6C4" transform="translate(143,96)"/>
<path d="M0 0 C-3.13623286 2.22571364 -5.76736361 3.22692958 -9.5 3.875 C-13.16780338 4.57218577 -13.89526225 4.89526225 -16.6875 7.6875 C-17.450625 8.450625 -18.21375 9.21375 -19 10 C-22 9.75 -22 9.75 -25 9 C-27.76864953 9.36858988 -27.76864953 9.36858988 -30 10 C-27.31013651 6.65017001 -23.70492598 5.43150958 -19.8125 3.9375 C-19.13920654 3.67509521 -18.46591309 3.41269043 -17.7722168 3.14233398 C-5.38292783 -1.60666909 -5.38292783 -1.60666909 0 0 Z " fill="#59CFC2" transform="translate(85,12)"/>
<path d="M0 0 C2.89932357 2.39509338 3.50168276 4.31245243 4 8 C4.66 8 5.32 8 6 8 C6.26554687 8.69867188 6.53109375 9.39734375 6.8046875 10.1171875 C7.15789062 11.02726562 7.51109375 11.93734375 7.875 12.875 C8.22304687 13.77992187 8.57109375 14.68484375 8.9296875 15.6171875 C9.88530895 18.12217007 9.88530895 18.12217007 12 20 C13 22.33333333 14 24.66666667 15 27 C15.66 27.66 16.32 28.32 17 29 C17.40047444 31.32275177 17.7397104 33.65739357 18 36 C16.515 35.505 16.515 35.505 15 35 C14.23020308 33.09741249 13.47308033 31.18780304 12.80810547 29.24609375 C11.52549458 25.68113298 9.78868727 22.36688716 8.0625 19 C6.03515625 15 6.03515625 15 5.03173828 13.01953125 C4.31498195 11.61654773 3.58868503 10.21841386 2.85498047 8.82421875 C2.48904785 8.11910156 2.12311523 7.41398437 1.74609375 6.6875 C1.41150146 6.05199219 1.07690918 5.41648437 0.73217773 4.76171875 C0 3 0 3 0 0 Z " fill="#1BCCC4" transform="translate(77,56)"/>
<path d="M0 0 C0.33 0 0.66 0 1 0 C3.0975485 13.8962588 1.49272302 25.98571033 -4 39 C-4.33 39 -4.66 39 -5 39 C-5.05422947 37.5629191 -5.09289723 36.12524538 -5.125 34.6875 C-5.14820313 33.88699219 -5.17140625 33.08648437 -5.1953125 32.26171875 C-5 30 -5 30 -3 27 C-0.61262438 21.4867081 -0.56727099 16.0373329 -0.375 10.125 C-0.31699219 8.66320312 -0.31699219 8.66320312 -0.2578125 7.171875 C-0.16406967 4.7814328 -0.0783617 2.39098756 0 0 Z " fill="#40C7CE" transform="translate(187,96)"/>
<path d="M0 0 C0.33 0 0.66 0 1 0 C1 1.65 1 3.3 1 5 C1.99 5.33 2.98 5.66 4 6 C4.061875 6.94875 4.12375 7.8975 4.1875 8.875 C4.78381168 13.25388579 6.73553885 16.73385849 8.84375 20.5703125 C10.02909789 23.0611449 10.57479991 25.2845176 11 28 C5.31881115 22.68974094 0.77907564 13.58073046 -0.51953125 5.9453125 C-0.5 3.5 -0.5 3.5 0 0 Z " fill="#47C0C6" transform="translate(100,11)"/>
<path d="M0 0 C3.48331435 3.01887244 4.79157144 5.56909529 6 10 C6.66 10 7.32 10 8 10 C12.40774487 18.261959 12.40774487 18.261959 13 23 C12.01 22.67 11.02 22.34 10 22 C9.26953125 20.15234375 9.26953125 20.15234375 8.8125 17.9375 C8.65394531 17.20402344 8.49539062 16.47054687 8.33203125 15.71484375 C8.22246094 15.14894531 8.11289063 14.58304688 8 14 C7.34 14 6.68 14 6 14 C5.73445313 13.36191406 5.46890625 12.72382812 5.1953125 12.06640625 C4.84210938 11.24011719 4.48890625 10.41382812 4.125 9.5625 C3.77695313 8.73878906 3.42890625 7.91507812 3.0703125 7.06640625 C2.1755063 4.84253285 2.1755063 4.84253285 0 4 C-0.33 4.66 -0.66 5.32 -1 6 C-1.042721 4.33388095 -1.04063832 2.66617115 -1 1 C-0.67 0.67 -0.34 0.34 0 0 Z " fill="#51AECB" transform="translate(101,105)"/>
<path d="M0 0 C-0.33 0.66 -0.66 1.32 -1 2 C-12.82657061 5.47934196 -24.79539326 5.33762744 -37 5 C-37 4.67 -37 4.34 -37 4 C-36.30962646 3.9498877 -35.61925293 3.89977539 -34.90795898 3.84814453 C-31.75052841 3.61465298 -28.59406368 3.36992156 -25.4375 3.125 C-24.35146484 3.04636719 -23.26542969 2.96773437 -22.14648438 2.88671875 C-14.71049475 2.29907215 -7.36026135 -0.35903714 0 0 Z " fill="#8FBEDB" transform="translate(125,185)"/>
<path d="M0 0 C0.66 0 1.32 0 2 0 C1.45015228 3.87511727 -0.27555331 5.59576506 -3.0625 8.25 C-3.79597656 8.95640625 -4.52945313 9.6628125 -5.28515625 10.390625 C-5.85105469 10.92171875 -6.41695312 11.4528125 -7 12 C-7.66 11.01 -8.32 10.02 -9 9 C-8.34 9 -7.68 9 -7 9 C-6.67 7.35 -6.34 5.7 -6 4 C-4.35 3.67 -2.7 3.34 -1 3 C-0.67 2.01 -0.34 1.02 0 0 Z " fill="#28C4C9" transform="translate(166,156)"/>
<path d="M0 0 C0.66 0 1.32 0 2 0 C0.58399311 6.13602988 -3.0663375 10.26698362 -7 15 C-7.33 14.01 -7.66 13.02 -8 12 C-7.03542166 10.64082143 -6.03145371 9.30915279 -5 8 C-4.29485154 5.85266073 -4.29485154 5.85266073 -4 4 C-3.01 4 -2.02 4 -1 4 C-0.67 2.68 -0.34 1.36 0 0 Z " fill="#48CBCB" transform="translate(176,143)"/>
<path d="M0 0 C-3.98475984 2.79908742 -6.97820759 3.44334382 -11.8125 3.6875 C-12.97394531 3.75324219 -14.13539062 3.81898437 -15.33203125 3.88671875 C-16.21246094 3.92410156 -17.09289062 3.96148438 -18 4 C-15.07089056 2.04726038 -12.91867709 1.24603637 -9.5625 0.3125 C-8.61503906 0.04050781 -7.66757813 -0.23148438 -6.69140625 -0.51171875 C-4.01081763 -0.99803744 -2.53712417 -0.89369149 0 0 Z " fill="#79D9CB" transform="translate(85,12)"/>
<path d="M0 0 C0 4.29908251 -1.7148681 6.37067287 -4 10 C-4.99 10.495 -4.99 10.495 -6 11 C-6.66 11.99 -7.32 12.98 -8 14 C-8.77734375 12.328125 -8.77734375 12.328125 -9 10 C-7.12890625 7.421875 -7.12890625 7.421875 -4.5625 4.75 C-3.29599609 3.41195312 -3.29599609 3.41195312 -2.00390625 2.046875 C-1.34261719 1.37140625 -0.68132813 0.6959375 0 0 Z " fill="#88A7CD" transform="translate(34,38)"/>
<path d="M0 0 C0.33 0 0.66 0 1 0 C1 2.97 1 5.94 1 9 C-3.62 9 -8.24 9 -13 9 C-13 8.67 -13 8.34 -13 8 C-10.36 8 -7.72 8 -5 8 C-5 7.34 -5 6.68 -5 6 C-3.35 6.33 -1.7 6.66 0 7 C0 4.69 0 2.38 0 0 Z " fill="#0AC3C6" transform="translate(98,179)"/>
<path d="M0 0 C3.67230705 3.07999946 4.56802365 5.2482602 5 10 C5.66 10 6.32 10 7 10 C7.33 11.32 7.66 12.64 8 14 C7.34 14 6.68 14 6 14 C3.46093936 11.38626111 2.07743148 9.87110419 1.75 6.1875 C1.8325 5.465625 1.915 4.74375 2 4 C1.34 4 0.68 4 0 4 C0 2.68 0 1.36 0 0 Z " fill="#4BBAC7" transform="translate(114,128)"/>
<path d="M0 0 C3.43925256 2.29283504 3.61011687 3.26468909 5 7 C5.8353125 8.2684375 5.8353125 8.2684375 6.6875 9.5625 C8 12 8 12 7.58203125 14.15234375 C7.38996094 14.76207031 7.19789062 15.37179688 7 16 C5.82845707 13.71070947 4.66261926 11.41881638 3.5 9.125 C3.16613281 8.47402344 2.83226563 7.82304688 2.48828125 7.15234375 C0 2.2265625 0 2.2265625 0 0 Z " fill="#23CFC6" transform="translate(65,32)"/>
<path d="M0 0 C10.55808656 0.59453303 10.55808656 0.59453303 15 4 C11.21180727 5.43410153 8.93478721 4.51009497 5.25 3.0625 C3.77273437 2.49208984 3.77273437 2.49208984 2.265625 1.91015625 C1.51796875 1.60980469 0.7703125 1.30945313 0 1 C0 0.67 0 0.34 0 0 Z " fill="#53CBD5" transform="translate(62,182)"/>
<path d="M0 0 C2.87255066 2.42195448 3.70838919 4.59742703 4.6875 8.1875 C4.93886719 9.08855469 5.19023438 9.98960938 5.44921875 10.91796875 C5.63097656 11.60503906 5.81273438 12.29210937 6 13 C3 12 3 12 2.05078125 10.29296875 C1.80714844 9.59816406 1.56351562 8.90335938 1.3125 8.1875 C1.06113281 7.50042969 0.80976562 6.81335938 0.55078125 6.10546875 C0 4 0 4 0 0 Z " fill="#49BBC5" transform="translate(108,115)"/>
<path d="M0 0 C3 2 3 2 4 5 C4.66 5.33 5.32 5.66 6 6 C6.40729228 8.32156597 6.74438677 10.6568787 7 13 C4.03134491 10.45543849 2.6380249 7.51005335 1 4 C0.34 4 -0.32 4 -1 4 C-0.67 2.68 -0.34 1.36 0 0 Z " fill="#41C4C6" transform="translate(101,102)"/>
<path d="M0 0 C-1.3418344 4.02550319 -3.4227573 4.88285636 -7 7 C-7.66 7 -8.32 7 -9 7 C-8.67 5.68 -8.34 4.36 -8 3 C-7.01 3 -6.02 3 -5 3 C-5 2.34 -5 1.68 -5 1 C-2 0 -2 0 0 0 Z " fill="#3BC7C7" transform="translate(154,170)"/>
<path d="M0 0 C1.89213369 2.38573379 3.02391783 4.07175348 4 7 C4.66 7.33 5.32 7.66 6 8 C6 9.32 6 10.64 6 12 C5.34 12 4.68 12 4 12 C2.95107762 10.36368108 1.95093297 8.69514137 1 7 C0.67 6.67 0.34 6.34 0 6 C-0.04080783 4.00041636 -0.04254356 1.99954746 0 0 Z " fill="#52B0CB" transform="translate(136,84)"/>
<path d="M0 0 C4.8 3.32307692 4.8 3.32307692 5.8125 6.75 C5.874375 7.4925 5.93625 8.235 6 9 C4.85073734 8.04578192 3.70569459 7.08647955 2.5625 6.125 C1.92441406 5.59132812 1.28632812 5.05765625 0.62890625 4.5078125 C-1 3 -1 3 -2 1 C-1.34 0.67 -0.68 0.34 0 0 Z " fill="#8EACD4" transform="translate(36,161)"/>
<path d="M0 0 C3.46865468 2.19681463 4.93033148 4.01305369 6 8 C5.625 10.3125 5.625 10.3125 5 12 C2.43015167 8.14522751 1.14185734 4.47959418 0 0 Z " fill="#56ADCA" transform="translate(130,162)"/>
<path d="M0 0 C1.37562854 1.28965176 2.70766393 2.62689293 4 4 C4 4.66 4 5.32 4 6 C4.66 6 5.32 6 6 6 C6 7.98 6 9.96 6 12 C2.44992282 8.0949151 1.18180084 5.02265357 0 0 Z " fill="#4CB9C8" transform="translate(114,44)"/>
<path d="M0 0 C2.31 0.33 4.62 0.66 7 1 C7 2.32 7 3.64 7 5 C4.0625 4.1875 4.0625 4.1875 1 3 C0.67 2.01 0.34 1.02 0 0 Z " fill="#31C7CB" transform="translate(55,177)"/>
<path d="M0 0 C0.33 0 0.66 0 1 0 C1 1.65 1 3.3 1 5 C1.99 5.33 2.98 5.66 4 6 C4 7.65 4 9.3 4 11 C1.29727467 8.12835434 0.05208163 6.69008159 -0.25 2.6875 C-0.1675 1.800625 -0.085 0.91375 0 0 Z " fill="#58A8CA" transform="translate(100,11)"/>
<path d="M0 0 C0.33 0 0.66 0 1 0 C1.12375 0.94875 1.2475 1.8975 1.375 2.875 C1.71687177 6.08667191 1.71687177 6.08667191 4 8 C1 9 1 9 -2 8 C-2 7.34 -2 6.68 -2 6 C-1.34 6 -0.68 6 0 6 C0 4.02 0 2.04 0 0 Z " fill="#41CDC5" transform="translate(141,170)"/>
<path d="M0 0 C-0.66 1.65 -1.32 3.3 -2 5 C-3.32 4.34 -4.64 3.68 -6 3 C-2.25 0 -2.25 0 0 0 Z " fill="#89A7D2" transform="translate(52,24)"/>
</svg>
